<svg xmlns="http://www.w3.org/2000/svg" version="1.1" xmlns:xlink="http://www.w3.org/1999/xlink" xmlns:svgjs="http://svgjs.dev/svgjs" viewBox="0 0 800 800"><defs><filter id="uuunion-blur" x="-100%" y="-100%" width="400%" height="400%" color-interpolation-filters="sRGB">
        <feGaussianBlur in="SourceGraphic" stdDeviation="19 10" result="blur"></feGaussianBlur>
        <feDropShadow stdDeviation="12.307692307692308" in="blur" dx="10" dy="10" flood-color="#888888" flood-opacity="0.09" x="0%" y="0%" width="100%" height="100%"></feDropShadow>
      </filter><filter id="uuunion-blur2" x="-100%" y="-100%" width="400%" height="400%" color-interpolation-filters="sRGB">
        <feGaussianBlur in="SourceGraphic" stdDeviation="19 10" result="blur"></feGaussianBlur>
        <feDropShadow stdDeviation="12.307692307692308" in="blur" dx="-10" dy="-10" flood-color="#888888" flood-opacity="0.09" x="0%" y="0%" width="100%" height="100%"></feDropShadow>
      </filter><linearGradient gradientTransform="rotate(110, 0.5, 0.5)" x1="50%" y1="0%" x2="50%" y2="100%" id="uuunion-grad"><stop stop-color="hsl(50, 98%, 80%)" offset="10%"></stop><stop stop-color="#888888" offset="90%"></stop></linearGradient><linearGradient gradientTransform="rotate(156, 0.5, 0.5)" x1="50%" y1="0%" x2="50%" y2="100%" id="uuunion-grad2"><stop stop-color="hsl(50, 98%, 80%)" offset="25%"></stop><stop stop-color="#888888" offset="100%"></stop></linearGradient><linearGradient gradientTransform="rotate(333, 0.5, 0.5)" x1="50%" y1="0%" x2="50%" y2="100%" id="uuunion-grad3"><stop stop-color="hsl(50, 98%, 80%)" offset="0%"></stop><stop stop-color="#888888" offset="75%"></stop></linearGradient></defs><path d="M-78.94 -84.48Q-64.32 -81.22 -49.7 -77.78 -35.07 -74.67 -20.45 -72.39 -5.83 -71.27 8.79 -71.5 23.41 -73.03 38.03 -75.64 52.65 -78.91 67.28 -82.35 81.9 -85.43 96.52 -87.68 111.14 -88.74 125.77 -88.45 140.39 -86.87 155.01 -84.23 169.63 -80.94 184.26 -77.5 198.88 -74.45 213.5 -72.25 228.12 -71.24 242.75 -71.58 257.37 -73.21 271.99 -75.89 286.62 -79.2 301.24 -82.63 315.86 -85.66 330.48 -87.81 345.11 -88.76 359.73 -88.37 374.35 -86.69 388.97 -83.97 403.6 -80.65 418.22 -77.23 432.84 -74.23 447.46 -72.11 462.09 -71.21 476.71 -71.67 491.33 -73.4 505.96 -76.14 520.58 -79.48 535.2 -82.9 549.82 -85.87 564.45 -87.94 579.07 -88.78 593.69 -88.28 608.31 -86.5 622.94 -83.72 637.56 -80.36 652.18 -76.95 666.8 -74.01 681.43 -71.99 696.05 -71.2 710.67 -71.76 725.3 -73.59 739.92 -76.4 754.54 -79.77 769.16 -83.17 783.79 -86.08 798.41 -88.06 813.03 -88.79 827.65 -88.18 842.28 -86.3 856.9 -83.45 855.94 -68.54 857.87 -53.63 862.47 -38.72 869.19 -23.81 877.2 -8.9 885.55 6 893.23 20.92 899.32 35.83 903.08 50.74 904.06 65.65 902.14 80.56 897.55 95.47 890.85 110.39 882.84 125.3 874.49 140.21 866.8 155.12 860.7 170.03 856.93 184.94 855.93 199.85 857.83 214.77 862.41 229.68 869.1 244.59 877.1 259.5 885.45 274.41 893.15 289.32 899.26 304.24 903.05 319.15 904.06 334.06 902.18 348.97 897.62 363.88 890.94 378.79 882.94 393.7 874.59 408.62 866.88 423.53 860.76 438.44 856.96 453.35 855.93 468.26 857.8 483.17 862.34 498.09 869.01 513 877 527.91 885.36 542.82 893.06 557.73 899.2 572.64 903.02 587.55 904.07 602.47 902.21 617.38 897.69 632.29 891.03 647.2 883.04 662.11 874.68 677.02 866.97 691.94 860.82 706.85 856.99 721.76 855.92 736.67 857.76 751.58 862.27 766.49 868.92 781.4 876.9 796.32 885.26 811.23 892.98 826.14 899.14 841.05 895.83 859.67 873.28 858.43 857.89 856.8 842.5 858.74 827.1 863.95 811.71 871.62 796.32 880.59 780.92 889.46 765.53 896.88 750.14 901.7 734.74 903.18 719.35 901.1 703.96 895.77 688.56 888.01 673.17 879.02 657.78 870.18 642.38 862.85 626.99 858.16 611.6 856.82 596.2 859.05 580.81 864.5 565.42 872.33 550.02 881.34 534.63 890.15 519.24 897.39 503.84 901.96 488.45 903.14 473.06 900.77 457.66 895.2 442.27 887.3 426.88 878.27 411.48 869.5 396.09 862.35 380.7 857.92 365.3 856.87 349.91 859.39 334.52 865.07 319.12 873.05 303.73 882.1 288.34 890.82 272.94 897.88 257.55 902.19 242.16 903.08 226.76 900.42 211.37 894.63 195.98 886.58 180.58 877.51 165.19 868.83 149.8 861.87 134.4 857.7 119.01 856.95 103.62 859.75 88.22 865.66 72.83 873.78 57.44 882.85 42.04 891.49 26.65 898.35 11.26 902.4 -4.13 902.99 -19.52 900.06 -34.91 894.03 -50.31 885.85 -65.7 876.76 -81.09 868.18 -81.04 853.29 -80.87 838.41 -80.59 823.52 -80.24 808.64 -79.85 793.75 -79.49 778.86 -79.19 763.98 -78.98 749.09 -78.9 734.21 -78.94 719.32 -79.12 704.44 -79.4 689.55 -79.75 674.67 -80.13 659.78 -80.5 644.9 -80.8 630.01 -81.01 615.13 -81.09 600.24 -81.05 585.35 -80.87 570.47 -80.59 555.58 -80.24 540.7 -79.86 525.81 -79.49 510.93 -79.19 496.04 -78.98 481.16 -78.9 466.27 -78.94 451.39 -79.12 436.5 -79.4 421.62 -79.75 406.73 -80.13 391.84 -80.49 376.96 -80.8 362.07 -81.01 347.19 -81.09 332.3 -81.05 317.42 -80.87 302.53 -80.6 287.65 -80.24 272.76 -79.86 257.88 -79.5 242.99 -79.19 228.11 -78.98 213.22 -78.9 198.33 -78.94 183.45 -79.11 168.56 -79.39 153.68 -79.74 138.79 -80.12 123.91 -80.49 109.02 -80.8 94.14 -81.01 79.25 -81.09 64.37 -81.05 49.48 -80.88 34.6 -80.6 19.71 -80.25 4.82 -79.87 -10.05 -79.5 -24.94 -79.2 -39.82 -78.99 -54.71 -78.9 -69.59 -78.94 -84.48" fill="url(#uuunion-grad)"></path><path d="M-78.94 -84.48Q-78.9 -69.59 -78.99 -54.71 -79.2 -39.82 -79.5 -24.94 -79.87 -10.05 -80.25 4.82 -80.6 19.71 -80.88 34.6 -81.05 49.48 -81.09 64.37 -81.01 79.25 -80.8 94.14 -80.49 109.02 -80.12 123.91 -79.74 138.79 -79.39 153.68 -79.11 168.56 -78.94 183.45 -78.9 198.33 -78.98 213.22 -79.19 228.11 -79.5 242.99 -79.86 257.88 -80.24 272.76 -80.6 287.65 -80.87 302.53 -81.05 317.42 -81.09 332.3 -81.01 347.19 -80.8 362.07 -80.49 376.96 -80.13 391.84 -70.1 395.71 -60.07 399.86 -50.03 404.03 -40 407.92 -29.97 411.26 -19.94 413.83 -1.13 415.84 2.11 415.97 14.82 408.51 27.61 399.5 40.47 389.25 53.39 378.19 66.35 366.85 79.33 355.78 92.3 345.47 105.26 336.36 118.16 328.73 131 322.71 143.74 318.26 156.37 315.16 168.88 313.07 181.24 311.52 193.45 310.02 205.51 308.06 217.4 305.19 229.15 301.06 240.74 295.46 252.21 288.35 263.57 279.83 274.83 270.17 286.04 259.73 297.21 248.99 308.38 238.41 319.59 228.45 330.86 219.51 342.25 211.85 353.77 205.6 365.46 200.75 377.36 197.12 389.48 194.42 401.86 192.26 414.49 190.2 427.4 187.8 440.59 184.64 454.05 180.41 467.77 174.92 481.74 168.1 495.93 160.03 510.31 150.92 524.85 141.1 539.49 130.95 554.21 120.89 568.94 111.33 583.63 102.6 598.24 94.97 612.7 88.55 626.97 83.34 641 79.22 654.75 75.95 668.17 73.18 681.23 70.55 693.9 67.67 706.17 64.18 718.03 59.8 729.48 54.35 740.52 47.77 751.18 40.1 761.48 31.52 771.47 22.29 781.17 12.74 790.66 3.22 800 -5.9 791.29 -23.25 784 -40.59 779.33 -57.94 778.03 -75.28 780.32 -92.63 785.83 -109.97 790.6 -134.6 772.6 -138.8 757.65 -135.9 742.7 -133.63 727.75 -132.32 712.8 -132.18 697.85 -133.23 682.9 -135.3 667.94 -138.09 652.99 -141.17 638.04 -144.06 623.09 -146.34 608.14 -147.66 593.19 -147.81 578.24 -146.77 563.29 -144.71 548.34 -141.93 533.39 -138.85 518.44 -135.95 503.49 -133.66 488.53 -132.34 473.58 -132.18 458.63 -133.2 443.68 -135.26 428.73 -138.04 413.78 -141.11 398.83 -144.02 383.88 -146.31 368.93 -147.65 353.98 -147.82 339.03 -146.8 324.08 -144.75 309.12 -141.98 294.17 -138.9 279.22 -136 264.27 -133.7 249.32 -132.35 234.37 -132.17 219.42 -133.18 204.47 -135.22 189.52 -137.99 174.57 -141.06 159.62 -143.97 144.67 -146.28 129.71 -147.63 114.76 -147.82 99.81 -146.83 84.86 -144.79 69.91 -142.03 54.96 -138.96 40.01 -136.04 25.06 -133.73 10.11 -132.37 -4.83 -132.16 -19.78 -133.15 -34.73 -135.17 -49.69 -137.93 -64.64 -141.01 -79.59 -143.92 -94.54 -146.25 -109.49 -147.62 -124.44 -147.83 -133.65 -134.21 -115.85 -118.33 -106.49 -110.56 -97.22 -102.31 -88.04 -93.59 -78.94 -84.48" fill="url(#uuunion-grad2)" filter="url(#uuunion-blur)"></path><path d="M802.68 390.54Q812.71 387.51 822.75 385.34 832.78 384.17 842.81 384.1 852.84 385.12 862.87 387.17 872.91 390.09 882.94 393.7 874.59 408.62 866.88 423.53 860.76 438.44 856.96 453.35 855.93 468.26 857.8 483.17 862.34 498.09 869.01 513 877 527.91 885.36 542.82 893.06 557.73 899.2 572.64 903.02 587.55 904.07 602.47 902.21 617.38 897.69 632.29 891.03 647.2 883.04 662.11 874.68 677.02 866.97 691.94 860.82 706.85 856.99 721.76 855.92 736.67 857.76 751.58 862.27 766.49 868.92 781.4 876.9 796.32 885.26 811.23 892.98 826.14 899.14 841.05 896.47 859.93 875.82 859.03 861.69 856.87 847.56 857.71 833.44 861.45 819.31 867.59 805.18 875.35 791.06 883.7 776.93 891.58 762.8 897.95 748.68 901.99 734.55 903.18 720.42 901.35 706.3 896.76 692.17 889.99 678.05 881.92 663.92 873.6 649.79 866.11 635.67 860.43 621.54 857.28 607.41 857.08 593.29 859.86 579.16 865.25 565.03 872.55 550.91 880.82 536.78 888.98 522.65 895.98 508.53 900.9 494.4 903.11 480.27 902.32 466.15 898.63 452.02 892.52 437.89 884.79 423.77 876.43 409.64 868.54 395.51 862.13 381.39 858.04 367.26 856.81 353.13 858.58 339.01 863.13 324.88 869.87 310.75 877.93 296.63 886.25 282.5 893.76 268.37 899.49 254.25 902.68 240.12 902.93 225.99 900.2 211.87 894.85 197.74 887.58 183.61 879.31 169.49 871.14 155.36 864.11 141.23 859.15 127.11 856.89 112.98 857.63 98.85 861.28 84.73 867.35 70.6 875.06 56.47 883.42 42.35 891.33 28.22 897.77 7.02 897.47 -0.11 882.89 -0.22 872.74 -0.38 862.59 -0.57 852.44 -0.78 842.29 -0.87 827.07 -0.24 822 11.99 814.48 24.15 804.75 36.25 793.22 48.29 780.45 60.31 767.15 72.33 754.09 84.35 741.98 96.42 731.45 108.54 722.93 120.75 716.66 133.06 712.62 145.48 710.54 158.04 709.97 170.75 710.28 183.61 710.78 196.62 710.72 209.78 709.47 223.08 706.49 236.52 701.45 250.07 694.25 263.72 684.99 277.43 674.03 291.18 661.88 304.95 649.19 318.68 636.64 332.36 624.91 345.94 614.58 359.39 606.06 372.68 599.59 385.78 595.16 398.66 592.57 411.3 591.4 423.69 591.1 435.81 591.02 447.66 590.51 459.24 588.94 470.56 585.85 481.63 580.89 492.48 573.96 503.14 565.14 513.64 554.74 524.01 543.2 534.32 531.11 544.6 519.09 554.9 507.77 565.28 497.67 575.79 489.19 586.48 482.55 597.4 477.78 608.59 474.7 620.1 472.95 631.96 472.04 644.19 471.38 656.81 470.38 669.84 468.48 683.28 465.23 697.12 460.32 711.35 453.62 725.93 445.21 740.83 435.34 756.01 424.4 771.42 412.91 787 401.44 802.68 390.54 802.68 390.54 802.68 390.54" fill="url(#uuunion-grad3)" filter="url(#uuunion-blur2)"></path></svg>